<svg width="500" height="270" viewBox="0 0 500 270" fill="none" xmlns="http://www.w3.org/2000/svg">
<path d="M166.573 143C193.399 143 215.146 121.286 215.146 94.5C215.146 67.7142 193.399 46 166.573 46C139.747 46 118 67.7142 118 94.5C118 121.286 139.747 143 166.573 143Z" fill="#FF8000"/>
<path d="M331.427 143C358.253 143 380 121.286 380 94.5C380 67.7142 358.253 46 331.427 46C304.601 46 282.854 67.7142 282.854 94.5C282.854 121.286 304.601 143 331.427 143Z" fill="#40BCF4"/>
<path d="M248.573 143C275.399 143 297.146 121.286 297.146 94.5C297.146 67.7142 275.399 46 248.573 46C221.747 46 200 67.7142 200 94.5C200 121.286 221.747 143 248.573 143Z" fill="#00E054"/>
<path d="M208.61 98.6216C206.615 96.7721 206.455 93.6749 208.237 91.6204C214.305 84.6279 229.098 70.162 248.128 69.4806C267.365 68.7916 283.817 84.2973 290.483 91.6181C292.35 93.6681 292.214 96.8366 290.178 98.7193C282.957 105.398 265.649 119.65 249.447 119.65C233.165 119.65 215.767 105.258 208.61 98.6216Z" fill="white"/>
<path d="M263.313 109.331C271.474 101.17 271.474 87.9382 263.313 79.7771C255.152 71.6159 241.92 71.6159 233.759 79.7771C225.598 87.9382 225.598 101.17 233.759 109.331C241.92 117.492 255.152 117.492 263.313 109.331Z" fill="#433930"/>
<path d="M253.849 92.6049C255.65 92.4564 256.989 90.8766 256.84 89.0762C256.692 87.2758 255.112 85.9367 253.312 86.0852C251.511 86.2337 250.172 87.8136 250.321 89.6139C250.469 91.4143 252.049 92.7534 253.849 92.6049Z" fill="#E0DBC0"/>
<path d="M395.954 225.446C393.153 225.446 390.606 224.721 388.315 223.27C386.025 221.82 384.195 219.645 382.827 216.744C381.459 213.843 380.775 210.242 380.775 205.941C380.775 201.474 381.484 197.799 382.901 194.915C384.319 192.03 386.173 189.896 388.464 188.512C390.771 187.127 393.252 186.435 395.905 186.435C397.899 186.435 399.605 186.781 401.022 187.473C402.44 188.149 403.61 189.023 404.533 190.094C405.456 191.165 406.156 192.278 406.634 193.431H406.881V174.272H418.97V224.902H407.005V218.746H406.634C406.123 219.917 405.398 221.013 404.459 222.034C403.519 223.056 402.341 223.88 400.923 224.507C399.523 225.133 397.866 225.446 395.954 225.446ZM400.157 216.027C401.624 216.027 402.877 215.615 403.915 214.791C404.953 213.95 405.752 212.772 406.313 211.256C406.873 209.739 407.153 207.959 407.153 205.916C407.153 203.839 406.873 202.051 406.313 200.551C405.769 199.051 404.97 197.898 403.915 197.09C402.877 196.283 401.624 195.879 400.157 195.879C398.657 195.879 397.388 196.291 396.35 197.115C395.312 197.939 394.521 199.101 393.977 200.601C393.449 202.1 393.186 203.872 393.186 205.916C393.186 207.959 393.458 209.739 394.001 211.256C394.545 212.772 395.328 213.95 396.35 214.791C397.388 215.615 398.657 216.027 400.157 216.027Z" fill="white"/>
<path d="M353.007 186.929L359.261 199.439L365.738 186.929H377.926L367.32 205.916L378.322 224.902H366.233L359.261 212.294L352.463 224.902H340.201L351.227 205.916L340.745 186.929H353.007Z" fill="white"/>
<path d="M318.705 225.619C314.716 225.619 311.288 224.803 308.421 223.172C305.569 221.523 303.369 219.233 301.82 216.299C300.287 213.349 299.521 209.929 299.521 206.039C299.521 202.133 300.287 198.713 301.82 195.78C303.369 192.83 305.569 190.539 308.421 188.907C311.288 187.259 314.716 186.435 318.705 186.435C322.693 186.435 326.113 187.259 328.964 188.907C331.832 190.539 334.032 192.83 335.565 195.78C337.114 198.713 337.889 202.133 337.889 206.039C337.889 209.929 337.114 213.349 335.565 216.299C334.032 219.233 331.832 221.523 328.964 223.172C326.113 224.803 322.693 225.619 318.705 225.619ZM318.779 216.497C320.229 216.497 321.457 216.052 322.463 215.162C323.468 214.272 324.234 213.036 324.762 211.453C325.306 209.871 325.578 208.042 325.578 205.965C325.578 203.856 325.306 202.01 324.762 200.428C324.234 198.845 323.468 197.609 322.463 196.719C321.457 195.829 320.229 195.384 318.779 195.384C317.279 195.384 316.01 195.829 314.972 196.719C313.95 197.609 313.167 198.845 312.623 200.428C312.096 202.01 311.832 203.856 311.832 205.965C311.832 208.042 312.096 209.871 312.623 211.453C313.167 213.036 313.95 214.272 314.972 215.162C316.01 216.052 317.279 216.497 318.779 216.497Z" fill="white"/>
<path d="M256.449 224.902V174.272H268.538V193.431H268.785C269.28 192.278 269.98 191.165 270.887 190.094C271.81 189.023 272.98 188.149 274.397 187.473C275.831 186.781 277.545 186.435 279.539 186.435C282.176 186.435 284.64 187.127 286.931 188.512C289.239 189.896 291.101 192.03 292.518 194.915C293.936 197.799 294.644 201.474 294.644 205.941C294.644 210.242 293.96 213.843 292.593 216.744C291.241 219.645 289.412 221.82 287.104 223.27C284.813 224.721 282.267 225.446 279.465 225.446C277.553 225.446 275.897 225.133 274.496 224.507C273.095 223.88 271.917 223.056 270.961 222.034C270.022 221.013 269.296 219.917 268.785 218.746H268.415V224.902H256.449ZM268.291 205.916C268.291 207.959 268.563 209.739 269.107 211.256C269.667 212.772 270.467 213.95 271.505 214.791C272.56 215.615 273.82 216.027 275.287 216.027C276.771 216.027 278.031 215.615 279.07 214.791C280.108 213.95 280.891 212.772 281.418 211.256C281.962 209.739 282.234 207.959 282.234 205.916C282.234 203.872 281.962 202.1 281.418 200.601C280.891 199.101 280.108 197.939 279.07 197.115C278.048 196.291 276.787 195.879 275.287 195.879C273.804 195.879 272.543 196.283 271.505 197.09C270.467 197.898 269.667 199.051 269.107 200.551C268.563 202.051 268.291 203.839 268.291 205.916Z" fill="white"/>
<path d="M225.788 225.446C222.986 225.446 220.44 224.721 218.149 223.27C215.858 221.82 214.029 219.645 212.661 216.744C211.293 213.843 210.609 210.242 210.609 205.941C210.609 201.474 211.318 197.799 212.735 194.915C214.152 192.03 216.007 189.896 218.297 188.512C220.605 187.127 223.085 186.435 225.739 186.435C227.733 186.435 229.439 186.781 230.856 187.473C232.273 188.149 233.444 189.023 234.367 190.094C235.29 191.165 235.99 192.278 236.468 193.431H236.715V174.272H248.804V224.902H236.839V218.746H236.468C235.957 219.917 235.232 221.013 234.292 222.034C233.353 223.056 232.175 223.88 230.757 224.507C229.356 225.133 227.7 225.446 225.788 225.446ZM229.991 216.027C231.458 216.027 232.71 215.615 233.749 214.791C234.787 213.95 235.586 212.772 236.147 211.256C236.707 209.739 236.987 207.959 236.987 205.916C236.987 203.839 236.707 202.051 236.147 200.551C235.603 199.051 234.803 197.898 233.749 197.09C232.71 196.283 231.458 195.879 229.991 195.879C228.491 195.879 227.222 196.291 226.184 197.115C225.145 197.939 224.354 199.101 223.81 200.601C223.283 202.1 223.019 203.872 223.019 205.916C223.019 207.959 223.291 209.739 223.835 211.256C224.379 212.772 225.162 213.95 226.184 214.791C227.222 215.615 228.491 216.027 229.991 216.027Z" fill="white"/>
<path d="M179.886 203.246V224.902H167.797V186.929H179.293V193.901H179.713C180.553 191.577 181.987 189.756 184.014 188.437C186.042 187.102 188.456 186.435 191.258 186.435C193.928 186.435 196.244 187.037 198.205 188.24C200.183 189.426 201.715 191.091 202.803 193.233C203.907 195.36 204.451 197.848 204.435 200.699V224.902H192.346V203.073C192.362 200.963 191.827 199.315 190.739 198.128C189.668 196.942 188.176 196.348 186.264 196.348C184.995 196.348 183.874 196.629 182.902 197.189C181.946 197.733 181.204 198.516 180.677 199.538C180.166 200.559 179.902 201.795 179.886 203.246Z" fill="white"/>
<path d="M148.013 224.902V186.929H160.102V224.902H148.013ZM154.07 182.504C152.373 182.504 150.914 181.944 149.694 180.823C148.475 179.686 147.865 178.318 147.865 176.719C147.865 175.137 148.475 173.786 149.694 172.665C150.914 171.528 152.373 170.959 154.07 170.959C155.784 170.959 157.243 171.528 158.446 172.665C159.666 173.786 160.275 175.137 160.275 176.719C160.275 178.318 159.666 179.686 158.446 180.823C157.243 181.944 155.784 182.504 154.07 182.504Z" fill="white"/>
<path d="M140.319 174.272V224.902H128.23V174.272H140.319Z" fill="white"/>
<path d="M82 224.902V174.272H103.112C106.903 174.272 110.076 174.808 112.63 175.879C115.201 176.95 117.13 178.45 118.415 180.378C119.717 182.306 120.368 184.54 120.368 187.078C120.368 189.006 119.964 190.728 119.157 192.245C118.349 193.744 117.237 194.989 115.819 195.978C114.402 196.967 112.762 197.659 110.9 198.054V198.549C112.943 198.648 114.831 199.2 116.561 200.205C118.308 201.21 119.709 202.611 120.764 204.408C121.819 206.188 122.346 208.297 122.346 210.737C122.346 213.456 121.654 215.887 120.269 218.029C118.885 220.156 116.882 221.837 114.262 223.073C111.641 224.292 108.461 224.902 104.719 224.902H82ZM94.2373 215.038H101.802C104.456 215.038 106.409 214.535 107.661 213.53C108.93 212.525 109.565 211.124 109.565 209.327C109.565 208.025 109.26 206.905 108.65 205.965C108.04 205.009 107.175 204.276 106.054 203.765C104.934 203.238 103.59 202.974 102.025 202.974H94.2373V215.038ZM94.2373 195.088H101.011C102.346 195.088 103.533 194.865 104.571 194.42C105.609 193.975 106.417 193.332 106.994 192.492C107.587 191.651 107.884 190.638 107.884 189.451C107.884 187.754 107.282 186.419 106.079 185.446C104.876 184.474 103.252 183.988 101.209 183.988H94.2373V195.088Z" fill="white"/>
</svg>
